<svg width="154" height="12" viewBox="0 0 154 12" fill="none" xmlns="http://www.w3.org/2000/svg">
<path d="M3.69531 7.34229H1.71338L1.70264 6.50977H3.50195C3.79915 6.50977 4.05876 6.45964 4.28076 6.35938C4.50277 6.25911 4.67464 6.11589 4.79639 5.92969C4.92171 5.73991 4.98438 5.51432 4.98438 5.25293C4.98438 4.96647 4.92887 4.73372 4.81787 4.55469C4.71045 4.37207 4.54395 4.23958 4.31836 4.15723C4.09635 4.07129 3.81348 4.02832 3.46973 4.02832H1.94434V11H0.907715V3.17969H3.46973C3.87077 3.17969 4.22884 3.22087 4.54395 3.30322C4.85905 3.382 5.12581 3.50732 5.34424 3.6792C5.56624 3.84749 5.73454 4.06234 5.84912 4.32373C5.9637 4.58512 6.021 4.89844 6.021 5.26367C6.021 5.58594 5.93864 5.87777 5.77393 6.13916C5.60921 6.39697 5.38005 6.60824 5.08643 6.77295C4.79639 6.93766 4.45622 7.04329 4.06592 7.08984L3.69531 7.34229ZM3.64697 11H1.30518L1.89062 10.1567H3.64697C3.9764 10.1567 4.2557 10.0994 4.48486 9.98486C4.71761 9.87028 4.89486 9.70915 5.0166 9.50146C5.13835 9.2902 5.19922 9.04134 5.19922 8.75488C5.19922 8.46484 5.1473 8.21419 5.04346 8.00293C4.93962 7.79167 4.77669 7.62874 4.55469 7.51416C4.33268 7.39958 4.04622 7.34229 3.69531 7.34229H2.21826L2.229 6.50977H4.24854L4.46875 6.81055C4.84473 6.84277 5.16341 6.9502 5.4248 7.13281C5.6862 7.31185 5.88493 7.54102 6.021 7.82031C6.16064 8.09961 6.23047 8.40755 6.23047 8.74414C6.23047 9.23112 6.12305 9.6429 5.9082 9.97949C5.69694 10.3125 5.39795 10.5667 5.01123 10.7422C4.62451 10.9141 4.16976 11 3.64697 11ZM13.8354 3.17969H14.8666V8.47021C14.8666 9.05745 14.7359 9.54622 14.4745 9.93652C14.2131 10.3268 13.8658 10.6204 13.4325 10.8174C13.0028 11.0107 12.5355 11.1074 12.0307 11.1074C11.5007 11.1074 11.0209 11.0107 10.5912 10.8174C10.1651 10.6204 9.82673 10.3268 9.57607 9.93652C9.329 9.54622 9.20547 9.05745 9.20547 8.47021V3.17969H10.2313V8.47021C10.2313 8.87842 10.3065 9.21501 10.4569 9.47998C10.6073 9.74495 10.8168 9.94189 11.0854 10.0708C11.3575 10.1997 11.6726 10.2642 12.0307 10.2642C12.3923 10.2642 12.7074 10.1997 12.976 10.0708C13.2481 9.94189 13.4594 9.74495 13.6098 9.47998C13.7602 9.21501 13.8354 8.87842 13.8354 8.47021V3.17969ZM22.262 9.02344C22.262 8.84082 22.2334 8.67969 22.1761 8.54004C22.1224 8.39681 22.0257 8.2679 21.886 8.15332C21.75 8.03874 21.5602 7.92952 21.3167 7.82568C21.0768 7.72184 20.7724 7.61621 20.4036 7.50879C20.0169 7.39421 19.6678 7.26709 19.3563 7.12744C19.0447 6.98421 18.778 6.82129 18.556 6.63867C18.334 6.45605 18.1639 6.24658 18.0457 6.01025C17.9275 5.77393 17.8685 5.50358 17.8685 5.19922C17.8685 4.89486 17.9311 4.61377 18.0564 4.35596C18.1818 4.09814 18.3608 3.87435 18.5936 3.68457C18.8299 3.49121 19.111 3.34082 19.4368 3.2334C19.7627 3.12598 20.1261 3.07227 20.5271 3.07227C21.1144 3.07227 21.6121 3.18506 22.0203 3.41064C22.4321 3.63265 22.7454 3.92448 22.9603 4.28613C23.1751 4.64421 23.2825 5.02734 23.2825 5.43555H22.2513C22.2513 5.14193 22.1886 4.88232 22.0633 4.65674C21.938 4.42757 21.7482 4.24854 21.4939 4.11963C21.2397 3.98714 20.9174 3.9209 20.5271 3.9209C20.1583 3.9209 19.854 3.9764 19.6141 4.0874C19.3742 4.1984 19.1951 4.3488 19.077 4.53857C18.9624 4.72835 18.9051 4.94499 18.9051 5.18848C18.9051 5.35319 18.9391 5.50358 19.0071 5.63965C19.0787 5.77214 19.188 5.89567 19.3348 6.01025C19.4852 6.12484 19.6749 6.23047 19.9041 6.32715C20.1368 6.42383 20.4144 6.51693 20.7366 6.60645C21.1806 6.73177 21.5638 6.87142 21.886 7.02539C22.2083 7.17936 22.4733 7.35303 22.681 7.54639C22.8922 7.73617 23.048 7.9528 23.1482 8.19629C23.2521 8.4362 23.304 8.70833 23.304 9.0127C23.304 9.33138 23.2396 9.61963 23.1106 9.87744C22.9817 10.1353 22.7973 10.3555 22.5574 10.5381C22.3175 10.7207 22.0293 10.8621 21.6927 10.9624C21.3597 11.0591 20.9873 11.1074 20.5755 11.1074C20.2138 11.1074 19.8576 11.0573 19.5066 10.957C19.1593 10.8568 18.8424 10.7064 18.556 10.5059C18.2731 10.3053 18.0457 10.0583 17.8738 9.76465C17.7055 9.46745 17.6214 9.1237 17.6214 8.7334H18.6526C18.6526 9.00195 18.7046 9.23291 18.8084 9.42627C18.9122 9.61605 19.0537 9.7736 19.2327 9.89893C19.4153 10.0243 19.6212 10.1174 19.8504 10.1782C20.0831 10.2355 20.3248 10.2642 20.5755 10.2642C20.9371 10.2642 21.2433 10.214 21.4939 10.1138C21.7446 10.0135 21.9344 9.87028 22.0633 9.68408C22.1958 9.49788 22.262 9.27767 22.262 9.02344ZM27.3371 3.17969V11H26.3005V3.17969H27.3371ZM36.838 3.17969V11H35.796L31.859 4.96826V11H30.8224V3.17969H31.859L35.8121 9.22754V3.17969H36.838ZM45.2432 10.1567V11H41.1021V10.1567H45.2432ZM41.3115 3.17969V11H40.2749V3.17969H41.3115ZM44.6953 6.54199V7.38525H41.1021V6.54199H44.6953ZM45.1895 3.17969V4.02832H41.1021V3.17969H45.1895ZM52.2948 9.02344C52.2948 8.84082 52.2662 8.67969 52.2089 8.54004C52.1552 8.39681 52.0585 8.2679 51.9188 8.15332C51.7828 8.03874 51.593 7.92952 51.3495 7.82568C51.1096 7.72184 50.8052 7.61621 50.4364 7.50879C50.0497 7.39421 49.7006 7.26709 49.3891 7.12744C49.0775 6.98421 48.8108 6.82129 48.5888 6.63867C48.3668 6.45605 48.1967 6.24658 48.0785 6.01025C47.9604 5.77393 47.9013 5.50358 47.9013 5.19922C47.9013 4.89486 47.9639 4.61377 48.0893 4.35596C48.2146 4.09814 48.3936 3.87435 48.6264 3.68457C48.8627 3.49121 49.1438 3.34082 49.4696 3.2334C49.7955 3.12598 50.1589 3.07227 50.56 3.07227C51.1472 3.07227 51.6449 3.18506 52.0531 3.41064C52.4649 3.63265 52.7782 3.92448 52.9931 4.28613C53.2079 4.64421 53.3153 5.02734 53.3153 5.43555H52.2841C52.2841 5.14193 52.2214 4.88232 52.0961 4.65674C51.9708 4.42757 51.781 4.24854 51.5268 4.11963C51.2725 3.98714 50.9503 3.9209 50.56 3.9209C50.1911 3.9209 49.8868 3.9764 49.6469 4.0874C49.407 4.1984 49.2279 4.3488 49.1098 4.53857C48.9952 4.72835 48.9379 4.94499 48.9379 5.18848C48.9379 5.35319 48.9719 5.50358 49.0399 5.63965C49.1116 5.77214 49.2208 5.89567 49.3676 6.01025C49.518 6.12484 49.7077 6.23047 49.9369 6.32715C50.1697 6.42383 50.4472 6.51693 50.7694 6.60645C51.2134 6.73177 51.5966 6.87142 51.9188 7.02539C52.2411 7.17936 52.5061 7.35303 52.7138 7.54639C52.925 7.73617 53.0808 7.9528 53.1811 8.19629C53.2849 8.4362 53.3368 8.70833 53.3368 9.0127C53.3368 9.33138 53.2724 9.61963 53.1435 9.87744C53.0145 10.1353 52.8301 10.3555 52.5902 10.5381C52.3503 10.7207 52.0621 10.8621 51.7255 10.9624C51.3925 11.0591 51.0201 11.1074 50.6083 11.1074C50.2466 11.1074 49.8904 11.0573 49.5395 10.957C49.1921 10.8568 48.8752 10.7064 48.5888 10.5059C48.3059 10.3053 48.0785 10.0583 47.9066 9.76465C47.7383 9.46745 47.6542 9.1237 47.6542 8.7334H48.6854C48.6854 9.00195 48.7374 9.23291 48.8412 9.42627C48.9451 9.61605 49.0865 9.7736 49.2655 9.89893C49.4481 10.0243 49.654 10.1174 49.8832 10.1782C50.1159 10.2355 50.3576 10.2642 50.6083 10.2642C50.97 10.2642 51.2761 10.214 51.5268 10.1138C51.7774 10.0135 51.9672 9.87028 52.0961 9.68408C52.2286 9.49788 52.2948 9.27767 52.2948 9.02344ZM60.4261 9.02344C60.4261 8.84082 60.3974 8.67969 60.3401 8.54004C60.2864 8.39681 60.1897 8.2679 60.0501 8.15332C59.914 8.03874 59.7243 7.92952 59.4808 7.82568C59.2409 7.72184 58.9365 7.61621 58.5677 7.50879C58.181 7.39421 57.8318 7.26709 57.5203 7.12744C57.2088 6.98421 56.942 6.82129 56.72 6.63867C56.498 6.45605 56.3279 6.24658 56.2098 6.01025C56.0916 5.77393 56.0325 5.50358 56.0325 5.19922C56.0325 4.89486 56.0952 4.61377 56.2205 4.35596C56.3458 4.09814 56.5249 3.87435 56.7576 3.68457C56.9939 3.49121 57.275 3.34082 57.6009 3.2334C57.9267 3.12598 58.2902 3.07227 58.6912 3.07227C59.2785 3.07227 59.7762 3.18506 60.1844 3.41064C60.5962 3.63265 60.9095 3.92448 61.1243 4.28613C61.3392 4.64421 61.4466 5.02734 61.4466 5.43555H60.4153C60.4153 5.14193 60.3527 4.88232 60.2273 4.65674C60.102 4.42757 59.9122 4.24854 59.658 4.11963C59.4038 3.98714 59.0815 3.9209 58.6912 3.9209C58.3224 3.9209 58.018 3.9764 57.7781 4.0874C57.5382 4.1984 57.3592 4.3488 57.241 4.53857C57.1264 4.72835 57.0691 4.94499 57.0691 5.18848C57.0691 5.35319 57.1032 5.50358 57.1712 5.63965C57.2428 5.77214 57.352 5.89567 57.4988 6.01025C57.6492 6.12484 57.839 6.23047 58.0682 6.32715C58.3009 6.42383 58.5784 6.51693 58.9007 6.60645C59.3447 6.73177 59.7278 6.87142 60.0501 7.02539C60.3724 7.17936 60.6373 7.35303 60.845 7.54639C61.0563 7.73617 61.212 7.9528 61.3123 8.19629C61.4161 8.4362 61.4681 8.70833 61.4681 9.0127C61.4681 9.33138 61.4036 9.61963 61.2747 9.87744C61.1458 10.1353 60.9614 10.3555 60.7215 10.5381C60.4816 10.7207 60.1933 10.8621 59.8567 10.9624C59.5237 11.0591 59.1513 11.1074 58.7396 11.1074C58.3779 11.1074 58.0216 11.0573 57.6707 10.957C57.3234 10.8568 57.0065 10.7064 56.72 10.5059C56.4371 10.3053 56.2098 10.0583 56.0379 9.76465C55.8696 9.46745 55.7854 9.1237 55.7854 8.7334H56.8167C56.8167 9.00195 56.8686 9.23291 56.9725 9.42627C57.0763 9.61605 57.2177 9.7736 57.3968 9.89893C57.5794 10.0243 57.7853 10.1174 58.0145 10.1782C58.2472 10.2355 58.4889 10.2642 58.7396 10.2642C59.1012 10.2642 59.4074 10.214 59.658 10.1138C59.9087 10.0135 60.0984 9.87028 60.2273 9.68408C60.3598 9.49788 60.4261 9.27767 60.4261 9.02344ZM71.3927 3.17969V11H70.3722V3.17969H71.3927ZM73.9063 3.17969V4.02832H67.8639V3.17969H73.9063ZM81.7744 6.54199V7.38525H77.542V6.54199H81.7744ZM77.7031 3.17969V11H76.6665V3.17969H77.7031ZM82.6768 3.17969V11H81.6455V3.17969H82.6768ZM92.14 6.84277V7.33691C92.14 7.92415 92.0666 8.45052 91.9198 8.91602C91.773 9.38151 91.5617 9.77718 91.286 10.103C91.0103 10.4289 90.6791 10.6777 90.2924 10.8496C89.9092 11.0215 89.4796 11.1074 89.0033 11.1074C88.5414 11.1074 88.1171 11.0215 87.7304 10.8496C87.3472 10.6777 87.0142 10.4289 86.7313 10.103C86.452 9.77718 86.2354 9.38151 86.0814 8.91602C85.9275 8.45052 85.8505 7.92415 85.8505 7.33691V6.84277C85.8505 6.25553 85.9257 5.73096 86.0761 5.26904C86.23 4.80355 86.4467 4.40788 86.726 4.08203C87.0053 3.7526 87.3365 3.50195 87.7196 3.33008C88.1063 3.1582 88.5307 3.07227 88.9926 3.07227C89.4688 3.07227 89.8985 3.1582 90.2816 3.33008C90.6684 3.50195 90.9996 3.7526 91.2753 4.08203C91.5546 4.40788 91.7676 4.80355 91.9145 5.26904C92.0648 5.73096 92.14 6.25553 92.14 6.84277ZM91.1142 7.33691V6.83203C91.1142 6.36654 91.0658 5.95475 90.9691 5.59668C90.876 5.23861 90.7382 4.93783 90.5556 4.69434C90.3729 4.45085 90.1492 4.26644 89.8842 4.14111C89.6228 4.01579 89.3256 3.95312 88.9926 3.95312C88.6703 3.95312 88.3785 4.01579 88.1171 4.14111C87.8593 4.26644 87.6373 4.45085 87.4511 4.69434C87.2685 4.93783 87.127 5.23861 87.0268 5.59668C86.9265 5.95475 86.8764 6.36654 86.8764 6.83203V7.33691C86.8764 7.80599 86.9265 8.22135 87.0268 8.58301C87.127 8.94108 87.2702 9.24365 87.4564 9.49072C87.6462 9.73421 87.87 9.91862 88.1278 10.0439C88.3892 10.1693 88.6811 10.2319 89.0033 10.2319C89.3399 10.2319 89.6389 10.1693 89.9003 10.0439C90.1617 9.91862 90.3819 9.73421 90.5609 9.49072C90.7436 9.24365 90.8814 8.94108 90.9745 8.58301C91.0676 8.22135 91.1142 7.80599 91.1142 7.33691ZM99.7664 3.17969H100.798V8.47021C100.798 9.05745 100.667 9.54622 100.406 9.93652C100.144 10.3268 99.7968 10.6204 99.3636 10.8174C98.9339 11.0107 98.4666 11.1074 97.9617 11.1074C97.4318 11.1074 96.952 11.0107 96.5223 10.8174C96.0962 10.6204 95.7578 10.3268 95.5071 9.93652C95.2601 9.54622 95.1365 9.05745 95.1365 8.47021V3.17969H96.1624V8.47021C96.1624 8.87842 96.2376 9.21501 96.388 9.47998C96.5384 9.74495 96.7478 9.94189 97.0164 10.0708C97.2885 10.1997 97.6036 10.2642 97.9617 10.2642C98.3234 10.2642 98.6385 10.1997 98.907 10.0708C99.1792 9.94189 99.3904 9.74495 99.5408 9.47998C99.6912 9.21501 99.7664 8.87842 99.7664 8.47021V3.17969ZM109.804 7.10596V9.96875C109.708 10.112 109.554 10.2731 109.342 10.4521C109.131 10.6276 108.839 10.7816 108.467 10.9141C108.098 11.043 107.622 11.1074 107.038 11.1074C106.562 11.1074 106.123 11.0251 105.722 10.8604C105.325 10.6921 104.979 10.4486 104.686 10.1299C104.396 9.80762 104.17 9.41732 104.009 8.95898C103.851 8.49707 103.773 7.97428 103.773 7.39062V6.78369C103.773 6.20003 103.841 5.67904 103.977 5.2207C104.116 4.76237 104.321 4.37386 104.589 4.05518C104.858 3.73291 105.187 3.48942 105.577 3.32471C105.968 3.15641 106.415 3.07227 106.92 3.07227C107.518 3.07227 108.018 3.17611 108.419 3.38379C108.823 3.58789 109.138 3.87077 109.364 4.23242C109.593 4.59408 109.74 5.00586 109.804 5.46777H108.768C108.721 5.1849 108.628 4.92708 108.488 4.69434C108.352 4.46159 108.157 4.27539 107.903 4.13574C107.649 3.99251 107.321 3.9209 106.92 3.9209C106.558 3.9209 106.245 3.98714 105.98 4.11963C105.715 4.25212 105.497 4.44189 105.325 4.68896C105.153 4.93604 105.024 5.23503 104.938 5.58594C104.856 5.93685 104.815 6.33252 104.815 6.77295V7.39062C104.815 7.8418 104.867 8.24463 104.97 8.59912C105.078 8.95361 105.23 9.25618 105.427 9.50684C105.624 9.75391 105.858 9.94189 106.131 10.0708C106.406 10.1997 106.711 10.2642 107.044 10.2642C107.412 10.2642 107.711 10.2337 107.941 10.1729C108.17 10.1084 108.349 10.0332 108.478 9.94727C108.607 9.85775 108.705 9.7736 108.773 9.69482V7.94385H106.963V7.10596H109.804ZM118.231 6.54199V7.38525H113.999V6.54199H118.231ZM114.16 3.17969V11H113.123V3.17969H114.16ZM119.133 3.17969V11H118.102V3.17969H119.133ZM125.304 3.17969V11H124.284V3.17969H125.304ZM127.818 3.17969V4.02832H121.775V3.17969H127.818ZM134.66 9.02344C134.66 8.84082 134.631 8.67969 134.574 8.54004C134.52 8.39681 134.424 8.2679 134.284 8.15332C134.148 8.03874 133.958 7.92952 133.715 7.82568C133.475 7.72184 133.17 7.61621 132.802 7.50879C132.415 7.39421 132.066 7.26709 131.754 7.12744C131.443 6.98421 131.176 6.82129 130.954 6.63867C130.732 6.45605 130.562 6.24658 130.444 6.01025C130.326 5.77393 130.267 5.50358 130.267 5.19922C130.267 4.89486 130.329 4.61377 130.454 4.35596C130.58 4.09814 130.759 3.87435 130.992 3.68457C131.228 3.49121 131.509 3.34082 131.835 3.2334C132.161 3.12598 132.524 3.07227 132.925 3.07227C133.512 3.07227 134.01 3.18506 134.418 3.41064C134.83 3.63265 135.143 3.92448 135.358 4.28613C135.573 4.64421 135.681 5.02734 135.681 5.43555H134.649C134.649 5.14193 134.587 4.88232 134.461 4.65674C134.336 4.42757 134.146 4.24854 133.892 4.11963C133.638 3.98714 133.316 3.9209 132.925 3.9209C132.556 3.9209 132.252 3.9764 132.012 4.0874C131.772 4.1984 131.593 4.3488 131.475 4.53857C131.36 4.72835 131.303 4.94499 131.303 5.18848C131.303 5.35319 131.337 5.50358 131.405 5.63965C131.477 5.77214 131.586 5.89567 131.733 6.01025C131.883 6.12484 132.073 6.23047 132.302 6.32715C132.535 6.42383 132.812 6.51693 133.135 6.60645C133.579 6.73177 133.962 6.87142 134.284 7.02539C134.606 7.17936 134.871 7.35303 135.079 7.54639C135.29 7.73617 135.446 7.9528 135.546 8.19629C135.65 8.4362 135.702 8.70833 135.702 9.0127C135.702 9.33138 135.638 9.61963 135.509 9.87744C135.38 10.1353 135.195 10.3555 134.955 10.5381C134.716 10.7207 134.427 10.8621 134.091 10.9624C133.758 11.0591 133.385 11.1074 132.974 11.1074C132.612 11.1074 132.256 11.0573 131.905 10.957C131.557 10.8568 131.24 10.7064 130.954 10.5059C130.671 10.3053 130.444 10.0583 130.272 9.76465C130.104 9.46745 130.019 9.1237 130.019 8.7334H131.051C131.051 9.00195 131.103 9.23291 131.206 9.42627C131.31 9.61605 131.452 9.7736 131.631 9.89893C131.813 10.0243 132.019 10.1174 132.248 10.1782C132.481 10.2355 132.723 10.2642 132.974 10.2642C133.335 10.2642 133.641 10.214 133.892 10.1138C134.143 10.0135 134.332 9.87028 134.461 9.68408C134.594 9.49788 134.66 9.27767 134.66 9.02344ZM142.044 11.77H153.044V0.77H142.044V11.77Z" fill="#703412"/>
</svg>
